<?xml version="1.0" encoding="UTF-8" standalone="no"?>
<!-- Created with Inkscape (http://www.inkscape.org/) -->

<svg
   xmlns:dc="http://purl.org/dc/elements/1.1/"
   xmlns:cc="http://creativecommons.org/ns#"
   xmlns:rdf="http://www.w3.org/1999/02/22-rdf-syntax-ns#"
   xmlns:svg="http://www.w3.org/2000/svg"
   xmlns="http://www.w3.org/2000/svg"
   xmlns:sodipodi="http://sodipodi.sourceforge.net/DTD/sodipodi-0.dtd"
   xmlns:inkscape="http://www.inkscape.org/namespaces/inkscape"
   sodipodi:docname="logos.svg"
   inkscape:version="0.48.4 r9939"
   version="1.1"
   id="svg2"
   height="1052.3622047"
   width="744.09448819">
  <sodipodi:namedview
     id="base"
     pagecolor="#ffffff"
     bordercolor="#666666"
     borderopacity="1.0"
     inkscape:pageopacity="0.0"
     inkscape:pageshadow="2"
     inkscape:zoom="0.49497475"
     inkscape:cx="50.55926"
     inkscape:cy="734.0201"
     inkscape:document-units="px"
     showgrid="false"
     showborder="false"
     inkscape:window-width="1920"
     inkscape:window-height="1017"
     inkscape:window-x="-8"
     inkscape:window-y="-8"
     inkscape:window-maximized="1"
     inkscape:current-layer="layer1" />
  <defs
     id="defs4" />
  <metadata
     id="metadata7">
    <rdf:RDF>
      <cc:Work
         rdf:about="">
        <dc:format>image/svg+xml</dc:format>
        <dc:type
           rdf:resource="http://purl.org/dc/dcmitype/StillImage" />
        <dc:title></dc:title>
      </cc:Work>
    </rdf:RDF>
  </metadata>
  <g
     id="layer1"
     inkscape:groupmode="layer"
     inkscape:label="Layer 1">
    <path
       sodipodi:type="arc"
       style="fill:#ff5555;fill-opacity:1;stroke:none"
       id="path3828"
       sodipodi:cx="-127.85714"
       sodipodi:cy="461.64789"
       sodipodi:rx="39.285713"
       sodipodi:ry="39.285713"
       d="m -88.571426,461.64789 a 39.285713,39.285713 0 1 1 -78.571424,0 39.285713,39.285713 0 1 1 78.571424,0 z"
       transform="matrix(0.40727274,0,0,0.40727274,-1154.0133,-51.004633)" />
    <path
       transform="matrix(0.40727274,0,0,0.40727274,-1212.8959,-51.004633)"
       d="m -88.571426,461.64789 a 39.285713,39.285713 0 1 1 -78.571424,0 39.285713,39.285713 0 1 1 78.571424,0 z"
       sodipodi:ry="39.285713"
       sodipodi:rx="39.285713"
       sodipodi:cy="461.64789"
       sodipodi:cx="-127.85714"
       id="path3830"
       style="fill:#71c837;fill-opacity:1;stroke:none"
       sodipodi:type="arc" />
    <path
       sodipodi:type="arc"
       style="fill:#5599ff;fill-opacity:1;stroke:none"
       id="path3832"
       sodipodi:cx="-127.85714"
       sodipodi:cy="461.64789"
       sodipodi:rx="39.285713"
       sodipodi:ry="39.285713"
       d="m -88.571426,461.64789 a 39.285713,39.285713 0 1 1 -78.571424,0 39.285713,39.285713 0 1 1 78.571424,0 z"
       transform="matrix(0.40727274,0,0,0.40727274,-1271.7784,-51.004633)" />
    <path
       sodipodi:type="arc"
       style="fill:#ffdd55;fill-opacity:1;stroke:none"
       id="path3834"
       sodipodi:cx="-127.85714"
       sodipodi:cy="461.64789"
       sodipodi:rx="39.285713"
       sodipodi:ry="39.285713"
       d="m -88.571426,461.64789 a 39.285713,39.285713 0 1 1 -78.571424,0 39.285713,39.285713 0 1 1 78.571424,0 z"
       transform="matrix(0.40727274,0,0,0.40727274,-1095.1308,-51.004633)" />
    <text
       xml:space="preserve"
       style="font-size:340.03765869px;font-style:normal;font-variant:normal;font-weight:normal;font-stretch:normal;line-height:125%;letter-spacing:-18px;word-spacing:0px;fill:#4d4d4d;fill-opacity:1;stroke:none;font-family:Tunga;-inkscape-font-specification:Tunga"
       x="-673.43005"
       y="279.94202"
       id="text3824"
       sodipodi:linespacing="125%"><tspan
         style="letter-spacing:-18px"
         sodipodi:role="line"
         id="tspan3826"
         x="-673.43005"
         y="279.94202"><tspan
   id="tspan6026"
   style="letter-spacing:-24.02003479px"><tspan
   style="fill:none"
   id="tspan4071">O</tspan>v</tspan>er<tspan
   id="tspan4318"
   style="letter-spacing:-10px">c</tspan><tspan
   id="tspan5858"
   style="letter-spacing:-23.25002861px">a</tspan><tspan
   id="tspan6024"
   style="letter-spacing:-22.26002502px">s</tspan><tspan
   id="tspan5968"
   style="letter-spacing:-19.5700016px">t</tspan>er</tspan></text>
    <path
       inkscape:connector-curvature="0"
       id="path6154"
       d="m -614.96371,50.0418 c -68.21605,0 -123.47752,55.30646 -123.47752,123.52252 0,68.21604 55.26147,123.47748 123.47752,123.47748 68.21605,0 123.52251,-55.26144 123.52251,-123.47748 0,-68.21606 -55.30646,-123.52252 -123.52251,-123.52252 z m 0,22.65104 c 55.70976,0 100.87147,45.16171 100.87147,100.87148 0,55.70976 -45.16171,100.87146 -100.87147,100.87146 -55.70977,0 -100.87148,-45.1617 -100.87148,-100.87146 0,-55.70977 45.16171,-100.87148 100.87148,-100.87148 z"
       style="fill:#4d4d4d;fill-opacity:1;stroke:none" />
    <path
       sodipodi:type="arc"
       style="fill:#5498fe;fill-opacity:1;stroke:none"
       id="path3967"
       sodipodi:cx="-127.85714"
       sodipodi:cy="461.64789"
       sodipodi:rx="39.285713"
       sodipodi:ry="39.285713"
       d="m -88.571426,461.64789 a 39.285713,39.285713 0 1 1 -78.571424,0 39.285713,39.285713 0 1 1 78.571424,0 z"
       transform="matrix(0.40727274,0,0,0.40782301,-562.86849,-14.72885)" />
    <path
       sodipodi:type="arc"
       style="fill:none;stroke:#a8cbff;stroke-width:14.27525234;stroke-miterlimit:4;stroke-opacity:1;stroke-dasharray:none"
       id="path3969"
       sodipodi:cx="-127.85714"
       sodipodi:cy="461.64789"
       sodipodi:rx="39.285713"
       sodipodi:ry="39.285713"
       d="m -88.571426,461.64789 a 39.285713,39.285713 0 1 1 -78.571424,0 39.285713,39.285713 0 1 1 78.571424,0 z"
       transform="matrix(0.98005635,0,0,0.98138057,-489.63402,-279.51049)" />
    <path
       sodipodi:type="arc"
       style="fill:#f2f2f2;fill-opacity:0;stroke:#d0e2ff;stroke-width:8.90043259;stroke-miterlimit:4;stroke-opacity:1;stroke-dasharray:none"
       id="path3971"
       sodipodi:cx="-127.85714"
       sodipodi:cy="461.64789"
       sodipodi:rx="39.285713"
       sodipodi:ry="39.285713"
       d="m -88.571426,461.64789 a 39.285713,39.285713 0 1 1 -78.571424,0 39.285713,39.285713 0 1 1 78.571424,0 z"
       transform="matrix(1.7964522,0,0,1.7988794,-385.25197,-656.90708)" />
    <path
       transform="matrix(1.7964522,0,0,1.7988794,-385.25197,-656.90708)"
       d="m -88.571426,461.64789 a 39.285713,39.285713 0 1 1 -78.571424,0 39.285713,39.285713 0 1 1 78.571424,0 z"
       sodipodi:ry="39.285713"
       sodipodi:rx="39.285713"
       sodipodi:cy="461.64789"
       sodipodi:cx="-127.85714"
       id="path3973"
       style="fill:#f2f2f2;fill-opacity:0;stroke:#d0e2ff;stroke-width:8.90043259;stroke-miterlimit:4;stroke-opacity:1;stroke-dasharray:none"
       sodipodi:type="arc" />
    <path
       transform="matrix(2.6981819,0,0,2.6981819,-506.0215,-602.06818)"
       d="m -88.571426,461.64789 a 39.285713,39.285713 0 1 1 -78.571424,0 39.285713,39.285713 0 1 1 78.571424,0 z"
       sodipodi:ry="39.285713"
       sodipodi:rx="39.285713"
       sodipodi:cy="461.64789"
       sodipodi:cx="-127.85714"
       id="path4035"
       style="fill:#ffffff;fill-opacity:0.50196078;stroke:none"
       sodipodi:type="arc"
       inkscape:export-filename="C:\Projects\Personal\Overcaster\icon_128.png"
       inkscape:export-xdpi="46.639664"
       inkscape:export-ydpi="46.639664" />
    <g
       id="g4021"
       transform="translate(-284.28571,494.28571)">
      <g
         id="g4025"
         transform="translate(138.31083,-414.10504)"
         inkscape:export-filename="C:\Projects\Personal\Overcaster\icon_128.png"
         inkscape:export-xdpi="46.639664"
         inkscape:export-ydpi="46.639664">
        <path
           transform="matrix(0.40727274,0,0,0.40782301,-652.95572,375.09048)"
           d="m -88.571426,461.64789 c 0,21.6969 -17.588814,39.28571 -39.285714,39.28571 -21.6969,0 -39.28571,-17.58881 -39.28571,-39.28571 0,-21.6969 17.58881,-39.28572 39.28571,-39.28572 21.6969,0 39.285714,17.58882 39.285714,39.28572 z"
           sodipodi:ry="39.285713"
           sodipodi:rx="39.285713"
           sodipodi:cy="461.64789"
           sodipodi:cx="-127.85714"
           id="path4027"
           style="fill:#5498fe;fill-opacity:1;stroke:none"
           sodipodi:type="arc" />
        <path
           transform="matrix(0.98005635,0,0,0.98138057,-579.72125,110.30884)"
           d="m -88.571426,461.64789 c 0,21.6969 -17.588814,39.28571 -39.285714,39.28571 -21.6969,0 -39.28571,-17.58881 -39.28571,-39.28571 0,-21.6969 17.58881,-39.28572 39.28571,-39.28572 21.6969,0 39.285714,17.58882 39.285714,39.28572 z"
           sodipodi:ry="39.285713"
           sodipodi:rx="39.285713"
           sodipodi:cy="461.64789"
           sodipodi:cx="-127.85714"
           id="path4029"
           style="fill:none;stroke:#a8cbff;stroke-width:14.27525234;stroke-miterlimit:4;stroke-opacity:1;stroke-dasharray:none"
           sodipodi:type="arc" />
        <path
           transform="matrix(1.7964522,0,0,1.7988794,-475.33921,-267.08775)"
           d="m -88.571426,461.64789 c 0,21.6969 -17.588814,39.28571 -39.285714,39.28571 -21.6969,0 -39.28571,-17.58881 -39.28571,-39.28571 0,-21.6969 17.58881,-39.28572 39.28571,-39.28572 21.6969,0 39.285714,17.58882 39.285714,39.28572 z"
           sodipodi:ry="39.285713"
           sodipodi:rx="39.285713"
           sodipodi:cy="461.64789"
           sodipodi:cx="-127.85714"
           id="path4031"
           style="fill:#f2f2f2;fill-opacity:0;stroke:#d0e2ff;stroke-width:8.90043259;stroke-miterlimit:4;stroke-opacity:1;stroke-dasharray:none"
           sodipodi:type="arc" />
        <path
           sodipodi:type="arc"
           style="fill:#f2f2f2;fill-opacity:0;stroke:#d0e2ff;stroke-width:8.90043259;stroke-miterlimit:4;stroke-opacity:1;stroke-dasharray:none"
           id="path4033"
           sodipodi:cx="-127.85714"
           sodipodi:cy="461.64789"
           sodipodi:rx="39.285713"
           sodipodi:ry="39.285713"
           d="m -88.571426,461.64789 c 0,21.6969 -17.588814,39.28571 -39.285714,39.28571 -21.6969,0 -39.28571,-17.58881 -39.28571,-39.28571 0,-21.6969 17.58881,-39.28572 39.28571,-39.28572 21.6969,0 39.285714,17.58882 39.285714,39.28572 z"
           transform="matrix(1.7964522,0,0,1.7988794,-475.33921,-267.08775)" />
      </g>
      <path
         inkscape:connector-curvature="0"
         id="path4023"
         d="m -566.74011,25.756086 c -68.21605,0 -123.47752,55.306457 -123.47752,123.522514 0,68.21604 55.26147,123.47748 123.47752,123.47748 68.21605,0 123.52251,-55.26144 123.52251,-123.47748 0,-68.216057 -55.30646,-123.522514 -123.52251,-123.522514 z m 0,22.651037 c 55.70976,0 100.87147,45.16171 100.87147,100.871477 0,55.70976 -45.16171,100.87146 -100.87147,100.87146 -55.70977,0 -100.87148,-45.1617 -100.87148,-100.87146 0,-55.709767 45.16171,-100.871477 100.87148,-100.871477 z"
         style="fill:#4d4d4d;fill-opacity:1;stroke:none"
         inkscape:export-filename="C:\Projects\Personal\Overcaster\icon_128.png"
         inkscape:export-xdpi="46.639664"
         inkscape:export-ydpi="46.639664" />
    </g>
  </g>
</svg>
